<?xml version="1.0" encoding="utf-8"?>
<!DOCTYPE svg PUBLIC "-//W3C//DTD SVG 1.1//EN" "http://www.w3.org/Graphics/SVG/1.1/DTD/svg11.dtd">
<svg version="1.1" id="Calque_1" xmlns="http://www.w3.org/2000/svg" xmlns:xlink="http://www.w3.org/1999/xlink" viewBox="0 0 64 64" xml:space="preserve">
<g fill="#ff0000">
	<path d="M30.141,7c0,0,5.909,3.919,6.929,14.689c0,0,1.996,25.875-11.393,30.95c0,0,1.198,0.223,2.548,0.158
		c0,0,16.554-10.441,8.96-30.711C37.187,22.087,34.915,15.012,30.141,7z"/>
	<path d="M38.783,24.673c0,0-3.084-4.771,0.83-8.708c0,0,1.372-1.51,5.283-2.505c0,0,3.915-0.833,6.029-5.328
		c0,0,4.385,6.121,1.686,14.182c0,0-1.331,3.628-4.118,5.283c-2.099,1.25-5.277,1.643-8.605-1.616c0,0,10.061-5.512,10.436-10.178
		C50.323,15.805,47.233,22.75,38.783,24.673z"/>
	<path d="M41.347,39.153c0,2.479-0.593,4.793-1.775,6.937c-1.184,2.144-2.784,3.801-4.798,4.967c-2.017,1.165-4.23,1.751-6.64,1.751
		c-2.41,0-4.623-0.585-6.638-1.751s-3.615-2.823-4.799-4.967c-1.185-2.146-1.777-4.457-1.777-6.937c0-3.849,1.299-7.129,3.895-9.84
		c2.597-2.71,5.703-4.066,9.318-4.066c1.72,0,3.325,0.311,4.819,0.932c0.148-1.57,0.701-3.031,1.312-4.228
		c-1.88-0.682-3.917-1.027-6.115-1.027c-5.225,0-9.55,1.924-12.97,5.772c-3.111,3.489-4.668,7.611-4.668,12.361
		c0,4.793,1.643,8.982,4.932,12.565C18.729,55.205,22.966,57,28.15,57c5.164,0,9.391-1.792,12.677-5.377
		c3.288-3.585,4.933-7.772,4.933-12.565c0-2.566-0.452-4.942-1.354-7.136c-1.509,0.93-2.944,1.415-4.132,1.664
		C40.988,35.284,41.347,37.14,41.347,39.153z"/>
</g>
</svg>