<?xml version="1.0" encoding="utf-8"?>
<!-- Generator: Adobe Illustrator 16.0.4, SVG Export Plug-In . SVG Version: 6.00 Build 0)  -->
<!DOCTYPE svg PUBLIC "-//W3C//DTD SVG 1.1//EN" "http://www.w3.org/Graphics/SVG/1.1/DTD/svg11.dtd">
<svg version="1.1" id="Calque_1" xmlns="http://www.w3.org/2000/svg" xmlns:xlink="http://www.w3.org/1999/xlink" x="0px" y="0px"
	 width="1792px" height="1792px" viewBox="0 0 1792 1792" enable-background="new 0 0 1792 1792" xml:space="preserve">
<rect fill="none" stroke="#000000" stroke-miterlimit="10" width="1792" height="1792"/>
<g>
	<path d="M838.893,128c0,0,181.523,120.393,212.859,451.246c0,0,61.316,794.882-349.994,950.786c0,0,36.803,6.848,78.274,4.852
		c0,0,508.54-320.748,275.252-943.442C1055.344,591.473,985.548,374.128,838.893,128z"/>
	<path d="M1104.376,670.914c0,0-94.744-146.564,25.496-267.51c0,0,42.147-46.387,162.292-76.952c0,0,120.268-25.591,185.212-163.676
		c0,0,134.708,188.037,51.792,435.669c0,0-40.888,111.453-126.504,162.295c-64.48,38.4-162.108,50.472-264.344-49.645
		c0,0,309.071-169.328,320.592-312.668C1458.884,398.49,1363.956,611.84,1104.376,670.914z"/>
	<path d="M1183.14,1115.74c0,76.156-18.22,147.24-54.527,213.104c-36.372,65.864-85.524,116.769-147.396,152.588
		c-61.96,35.788-129.943,53.788-203.979,53.788c-74.034,0-142.019-17.968-203.918-53.788
		c-61.902-35.819-111.054-86.724-147.426-152.588c-36.404-65.924-54.591-136.92-54.591-213.104
		c0-118.244,39.906-219.002,119.654-302.284c79.78-83.252,175.196-124.908,286.25-124.908c52.838,0,102.145,9.554,148.042,28.63
		c4.544-48.229,21.532-93.111,40.304-129.884c-57.756-20.95-120.332-31.548-187.854-31.548
		c-160.512,0-293.376,59.104-398.44,177.314c-95.569,107.184-143.399,233.812-143.399,379.731
		c0,147.24,50.472,275.928,151.51,385.996C488.314,1608.856,618.477,1664,777.729,1664c158.64,0,288.491-55.052,389.439-165.18
		c101.004-110.133,151.54-238.756,151.54-385.996c0-78.832-13.888-151.82-41.596-219.221
		c-46.356,28.572-90.44,43.469-126.937,51.116C1172.112,996.884,1183.14,1053.9,1183.14,1115.74z"/>
</g>
</svg>
