<?xml version="1.0" encoding="utf-8"?>
<!-- Generator: Adobe Illustrator 16.0.4, SVG Export Plug-In . SVG Version: 6.00 Build 0)  -->
<!DOCTYPE svg PUBLIC "-//W3C//DTD SVG 1.1//EN" "http://www.w3.org/Graphics/SVG/1.1/DTD/svg11.dtd">
<svg version="1.1" id="Calque_1" xmlns="http://www.w3.org/2000/svg" xmlns:xlink="http://www.w3.org/1999/xlink" x="0px" y="0px"
	 width="1792px" height="1792px" viewBox="0 0 1792 1792" enable-background="new 0 0 1792 1792" xml:space="preserve">
<rect fill="none" stroke="#000000" stroke-miterlimit="10" width="1792" height="1792"/>
<path d="M1664,1341.091c0,19.637-3.636,45.272-10.909,76.909c-7.272,31.637-14.909,56.545-22.909,74.728
	c-15.272,36.363-59.637,74.909-133.091,115.636c-68.364,37.092-136,55.637-202.909,55.637c-19.637,0-38.727-1.273-57.272-3.818
	s-39.455-7.091-62.728-13.637c-23.272-6.545-40.546-11.817-51.818-15.817c-11.271-4.001-31.454-11.455-60.545-22.364
	c-29.092-10.908-46.909-17.454-53.455-19.636c-71.272-25.454-134.909-55.637-190.909-90.546
	c-93.091-57.455-189.273-135.818-288.545-235.091c-99.273-99.272-177.636-195.455-235.091-288.546
	c-34.909-55.999-65.091-119.636-90.546-190.909c-2.182-6.545-8.727-24.363-19.636-53.455s-18.364-49.273-22.364-60.545
	c-4-11.272-9.272-28.546-15.818-51.818c-6.545-23.272-11.091-44.182-13.636-62.728c-2.546-18.545-3.818-37.636-3.818-57.272
	c0-66.909,18.545-134.545,55.636-202.909c40.728-73.455,79.272-117.818,115.636-133.091c18.182-8,43.091-15.637,74.728-22.909
	S431.272,128,450.909,128c10.181,0,17.818,1.091,22.909,3.272c13.091,4.364,32.364,32,57.818,82.909
	c8,13.818,18.909,33.455,32.728,58.909c13.818,25.455,26.545,48.545,38.182,69.273c11.637,20.727,22.909,40.181,33.818,58.363
	c2.182,2.91,8.545,12,19.091,27.273c10.546,15.272,18.363,28.182,23.455,38.727c5.091,10.546,7.636,20.91,7.636,31.091
	c0,14.545-10.364,32.727-31.091,54.545c-20.728,21.818-43.273,41.818-67.636,60s-46.909,37.454-67.637,57.818
	c-20.727,20.364-31.091,37.091-31.091,50.182c0,6.545,1.818,14.727,5.455,24.545c3.636,9.818,6.728,17.272,9.273,22.363
	c2.545,5.091,7.636,13.819,15.272,26.182s11.818,19.273,12.545,20.727c55.273,99.637,118.546,185.092,189.818,256.364
	s156.728,134.545,256.364,189.817c1.454,0.729,8.363,4.909,20.727,12.546c12.363,7.636,21.091,12.728,26.183,15.272
	c5.091,2.545,12.545,5.637,22.363,9.273c9.818,3.636,18,5.454,24.546,5.454c13.091,0,29.817-10.364,50.182-31.091
	c20.363-20.728,39.636-43.273,57.818-67.637c18.182-24.363,38.182-46.909,60-67.637c21.818-20.727,40-31.09,54.545-31.09
	c10.182,0,20.545,2.545,31.091,7.636s23.455,12.909,38.728,23.454c15.272,10.547,24.363,16.91,27.272,19.092
	c18.183,10.908,37.637,22.182,58.364,33.818c20.727,11.637,43.818,24.363,69.272,38.182s45.091,24.728,58.909,32.727
	c50.909,25.455,78.545,44.728,82.909,57.818C1662.909,1323.273,1664,1330.909,1664,1341.091z"/>
</svg>
