<?xml version="1.0" encoding="utf-8"?>
<!-- Generator: Adobe Illustrator 16.0.4, SVG Export Plug-In . SVG Version: 6.00 Build 0)  -->
<!DOCTYPE svg PUBLIC "-//W3C//DTD SVG 1.1//EN" "http://www.w3.org/Graphics/SVG/1.1/DTD/svg11.dtd">
<svg version="1.1" id="Calque_1" xmlns="http://www.w3.org/2000/svg" xmlns:xlink="http://www.w3.org/1999/xlink" x="0px" y="0px"
	 width="1792px" height="1792px" viewBox="0 0 1792 1792" enable-background="new 0 0 1792 1792" xml:space="preserve">
<rect fill="none" stroke="#000000" stroke-miterlimit="10" width="1792" height="1792"/>
<path d="M1664,420.386c-43.533,63.675-96.163,117.929-157.889,162.762c0.65,9.096,0.975,22.741,0.975,40.934
	c0,84.468-12.346,168.772-37.035,252.914c-24.689,84.142-62.213,164.873-112.568,242.192
	c-50.355,77.32-110.295,145.706-179.817,205.158c-69.522,59.451-153.34,106.883-251.452,142.294
	c-98.112,35.411-203.045,53.116-314.802,53.116c-176.082,0-337.218-47.105-483.411-141.319c22.741,2.6,48.082,3.898,76.021,3.898
	c146.193,0,276.467-44.833,390.822-134.497c-68.224-1.3-129.3-22.254-183.229-62.863c-53.929-40.609-90.965-92.426-111.106-155.452
	c21.441,3.249,41.259,4.874,59.452,4.874c27.939,0,55.553-3.574,82.843-10.722c-72.771-14.943-133.036-51.167-180.792-108.67
	c-47.756-57.502-71.635-124.264-71.635-200.284v-3.898c44.183,24.69,91.614,38.01,142.294,39.959
	c-42.883-28.588-76.995-65.95-102.335-112.081c-25.34-46.132-38.01-96.163-38.01-150.091c0-57.178,14.294-110.132,42.883-158.863
	c78.619,96.812,174.294,174.294,287.025,232.447c112.731,58.153,233.421,90.477,362.071,96.975
	c-5.198-24.69-7.797-48.731-7.797-72.122c0-87.066,30.7-161.3,92.102-222.701c61.4-61.401,135.635-92.102,222.7-92.102
	c90.964,0,167.635,33.137,230.011,99.411c70.822-13.645,137.421-38.985,199.797-76.02
	c-24.041,74.721-70.173,132.548-138.396,173.482C1543.147,462.619,1603.573,446.376,1664,420.386z"/>
</svg>
