<?xml version="1.0" encoding="utf-8"?>
<!-- Generator: Adobe Illustrator 16.0.4, SVG Export Plug-In . SVG Version: 6.00 Build 0)  -->
<!DOCTYPE svg PUBLIC "-//W3C//DTD SVG 1.1//EN" "http://www.w3.org/Graphics/SVG/1.1/DTD/svg11.dtd">
<svg version="1.1" id="Calque_1" xmlns="http://www.w3.org/2000/svg" xmlns:xlink="http://www.w3.org/1999/xlink" x="0px" y="0px"
	 width="1792px" height="1792px" viewBox="0 0 1792 1792" enable-background="new 0 0 1792 1792" xml:space="preserve">
<rect fill="none" stroke="#000000" stroke-miterlimit="10" width="1792" height="1792"/>
<path d="M1664,681.714v680.571c0,37.715-13.429,70.001-40.285,96.857c-26.857,26.857-59.144,40.286-96.857,40.286H265.143
	c-37.714,0-70-13.429-96.857-40.286C141.428,1432.286,128,1400,128,1362.285V681.714c25.143,28,54,52.857,86.571,74.571
	c206.857,140.572,348.857,239.143,426,295.714c32.572,24,59,42.714,79.286,56.143c20.286,13.429,47.286,27.144,81,41.143
	c33.714,14,65.143,21,94.286,21h1.714c29.143,0,60.571-7,94.285-21c33.715-13.999,60.715-27.714,81-41.143
	c20.286-13.429,46.715-32.143,79.286-56.143c97.143-70.286,239.429-168.857,426.857-295.714
	C1610.857,734,1639.429,709.143,1664,681.714z M1664,429.714c0,45.143-14,88.286-42,129.428
	c-28,41.143-62.856,76.286-104.571,105.429c-214.857,149.143-348.571,242-401.144,278.571c-5.714,4.001-17.856,12.714-36.428,26.143
	c-18.572,13.43-34,24.286-46.286,32.572c-12.285,8.285-27.143,17.571-44.571,27.856c-17.429,10.286-33.857,18-49.286,23.144
	c-15.428,5.143-29.714,7.714-42.856,7.714h-1.714c-13.143,0-27.429-2.571-42.857-7.714c-15.428-5.144-31.857-12.857-49.286-23.144
	c-17.428-10.285-32.286-19.571-44.571-27.856c-12.286-8.286-27.714-19.143-46.286-32.572
	c-18.572-13.429-30.714-22.142-36.429-26.143c-52-36.571-126.857-88.714-224.571-156.428S294.857,678.286,275.429,664.571
	c-35.429-24-68.857-57-100.286-99c-31.429-42-47.143-81-47.143-117c0-44.571,11.857-81.714,35.571-111.429
	c23.714-29.714,57.571-44.571,101.572-44.571h1261.714c37.143,0,69.285,13.429,96.429,40.286
	C1650.429,359.714,1664,392,1664,429.714z"/>
</svg>
