<?xml version="1.0" encoding="utf-8"?>
<!-- Generator: Adobe Illustrator 16.0.4, SVG Export Plug-In . SVG Version: 6.00 Build 0)  -->
<!DOCTYPE svg PUBLIC "-//W3C//DTD SVG 1.1//EN" "http://www.w3.org/Graphics/SVG/1.1/DTD/svg11.dtd">
<svg version="1.1" id="Calque_1" xmlns="http://www.w3.org/2000/svg" xmlns:xlink="http://www.w3.org/1999/xlink" x="0px" y="0px"
	 width="1792px" height="1792px" viewBox="0 0 1792 1792" enable-background="new 0 0 1792 1792" xml:space="preserve">
<rect fill="none" stroke="#000000" stroke-miterlimit="10" width="1792" height="1792"/>
<path d="M1225.143,896c0-21.143-8.571-36.572-25.714-46.286L760.571,575.429c-17.714-11.428-36.285-12-55.714-1.714
	C686,584,676.571,600,676.571,621.714v548.571c0,21.715,9.429,37.715,28.286,48c9.143,4.572,18,6.857,26.571,6.857
	c11.428,0,21.143-2.856,29.143-8.571l438.857-274.285C1216.571,932.571,1225.143,917.144,1225.143,896z M1664,896
	c0,54.857-0.285,97.714-0.857,128.571c-0.571,30.857-3,69.857-7.285,117c-4.286,47.144-10.715,89.286-19.286,126.429
	c-9.143,41.715-28.857,76.857-59.143,105.429s-65.715,45.144-106.286,49.714c-126.856,14.286-318.571,21.429-575.143,21.429
	s-448.286-7.143-575.143-21.429c-40.571-4.57-76.143-21.143-106.714-49.714s-50.429-63.714-59.572-105.429
	c-8-37.143-14.143-79.285-18.428-126.429c-4.286-47.143-6.715-86.143-7.286-117S128,950.857,128,896
	c0-54.857,0.286-97.714,0.857-128.571c0.571-30.857,3-69.857,7.286-117c4.286-47.143,10.714-89.286,19.286-126.429
	c9.143-41.714,28.857-76.857,59.143-105.429c30.286-28.571,65.714-45.143,106.286-49.714
	C447.714,354.572,639.429,347.429,896,347.429s448.286,7.143,575.143,21.429c40.571,4.571,76.143,21.143,106.715,49.714
	c30.571,28.571,50.428,63.714,59.571,105.429c8,37.143,14.143,79.286,18.429,126.429c4.285,47.143,6.714,86.143,7.285,117
	C1663.715,798.286,1664,841.143,1664,896z"/>
</svg>
