<?xml version="1.0" encoding="utf-8"?>
<!-- Generator: Adobe Illustrator 16.0.4, SVG Export Plug-In . SVG Version: 6.00 Build 0)  -->
<!DOCTYPE svg PUBLIC "-//W3C//DTD SVG 1.1//EN" "http://www.w3.org/Graphics/SVG/1.1/DTD/svg11.dtd">
<svg version="1.1" id="Calque_1" xmlns="http://www.w3.org/2000/svg" xmlns:xlink="http://www.w3.org/1999/xlink" x="0px" y="0px"
	 width="1792px" height="1792px" viewBox="0 0 1792 1792" enable-background="new 0 0 1792 1792" xml:space="preserve">
<rect fill="none" stroke="#000000" stroke-miterlimit="10" width="1792" height="1792"/>
<path d="M814.769,862.769c0,22.154,9.847,43.846,29.539,65.077c19.691,21.231,43.539,42.154,71.538,62.77
	c28,20.615,55.847,43.23,83.539,67.847c27.692,24.615,51.385,56.614,71.077,96c19.691,39.385,29.538,83.076,29.538,131.076
	c0,55.385-14.77,108.616-44.308,159.692c-44.308,75.077-109.23,130.309-194.77,165.692C775.384,1646.308,683.692,1664,585.846,1664
	c-81.23,0-157.076-12.769-227.538-38.308S235.077,1557.846,200,1498.77c-22.77-36.924-34.154-77.231-34.154-120.924
	c0-49.846,13.692-96,41.077-138.461c27.385-42.462,63.846-77.846,109.385-106.154c80.615-50.462,204.923-81.23,372.923-92.308
	c-19.692-25.846-34.308-48.615-43.846-68.308c-9.538-19.691-14.308-42.154-14.308-67.385c0-22.153,6.461-48.307,19.384-78.461
	c-28.308,2.462-49.23,3.692-62.769,3.692c-91.077,0-167.847-29.692-230.308-89.077C294.923,682,263.692,606.77,263.692,515.692
	c0-50.462,11.076-99.385,33.23-146.77S349.538,281.231,388.308,248c47.385-40.615,103.539-70.769,168.461-90.461
	C621.691,137.846,688.615,128,757.538,128h385.847L1016,209.231H895.077c45.538,38.769,80,79.692,103.385,122.769
	c23.384,43.077,35.076,92.308,35.076,147.692c0,44.308-7.538,84.154-22.615,119.539c-15.076,35.384-33.23,64-54.461,85.846
	c-21.231,21.846-42.616,41.846-64.154,60c-21.538,18.154-39.847,37.077-54.923,56.769
	C822.308,821.538,814.769,841.846,814.769,862.769z M680,774.154c23.384,0,47.384-5.077,72-15.231
	c24.615-10.154,44.923-23.538,60.923-40.154c32.615-35.077,48.923-84,48.923-146.769c0-35.692-5.23-74.153-15.692-115.385
	c-10.461-41.231-25.385-81.077-44.769-119.538c-19.385-38.461-45.386-70.308-78-95.539c-32.615-25.231-68.615-37.846-108-37.846
	c-25.847,0-51.231,6-76.154,18s-45.076,28.154-60.462,48.461c-28.922,36.308-43.384,85.539-43.384,147.692
	c0,28.308,3.077,58.308,9.23,90c6.154,31.692,15.847,63.385,29.077,95.077c13.23,31.692,29.23,60.154,48,85.385
	c18.769,25.23,41.846,45.847,69.23,61.846S647.999,774.154,680,774.154z M681.846,1580c35.692,0,70-4,102.923-12
	c32.924-8,63.386-20,91.385-36c28-16,50.462-38.462,67.385-67.385s25.385-62.462,25.385-100.615c0-15.385-2.153-30.462-6.461-45.23
	c-4.309-14.77-8.77-27.692-13.385-38.77s-12.923-23.846-24.923-38.308s-21.077-25.23-27.231-32.308s-18-17.692-35.538-31.847
	c-17.539-14.153-28.77-23.076-33.692-26.769s-17.693-12.924-38.308-27.692c-20.615-14.77-31.847-22.77-33.692-24
	c-9.847-1.23-24.616-1.847-44.308-1.847c-32.615,0-64.923,2.154-96.924,6.462c-32,4.308-65.076,12-99.23,23.077
	c-34.153,11.076-64,25.23-89.538,42.461c-25.539,17.231-46.615,40.154-63.231,68.77c-16.615,28.615-24.923,61.077-24.923,97.385
	c0,43.077,10.77,81.076,32.308,114c21.539,32.923,49.692,58.461,84.462,76.615s71.384,31.692,109.846,40.615
	C602.615,1575.539,641.847,1580,681.846,1580z M1429.539,771.385h196.615v99.692h-196.615v202.153h-96.924V871.077h-195.692v-99.692
	h195.692V571.077h96.924V771.385z"/>
</svg>
