<?xml version="1.0" encoding="utf-8"?>
<!-- Generator: Adobe Illustrator 16.0.4, SVG Export Plug-In . SVG Version: 6.00 Build 0)  -->
<!DOCTYPE svg PUBLIC "-//W3C//DTD SVG 1.1//EN" "http://www.w3.org/Graphics/SVG/1.1/DTD/svg11.dtd">
<svg version="1.1" id="Calque_1" xmlns="http://www.w3.org/2000/svg" xmlns:xlink="http://www.w3.org/1999/xlink" x="0px" y="0px"
	 width="1792px" height="1792px" viewBox="0 0 1792 1792" enable-background="new 0 0 1792 1792" xml:space="preserve">
<rect fill="none" stroke="#000000" stroke-miterlimit="10" width="1792" height="1792"/>
<path d="M1657.439,481.249c14.489-76.97,4.98-136.735-28.524-179.294c-47.088-58.859-131.754-79.233-254.001-61.124
	c-15.394,2.717-33.957,8.377-55.69,16.979c-21.732,8.602-47.767,22.412-78.102,41.428s-59.538,40.976-87.609,65.877
	c-28.072,24.901-55.012,56.596-80.819,95.081c-25.808,38.484-45.955,79.913-60.443,124.284
	c72.441-6.339,123.831,0.906,154.166,21.733s42.334,65.65,35.995,134.471c-4.527,47.088-28.072,111.832-70.632,194.236
	c-38.938,70.632-71.083,115.455-96.438,134.472c-39.843,28.977-79.233,22.639-118.172-19.017
	c-20.827-21.732-37.806-50.936-50.937-87.609c-13.13-36.674-21.732-69.726-25.808-99.156c-4.075-29.431-8.602-67.463-13.583-114.097
	s-8.829-79.008-11.545-97.118c-20.827-116.813-36.222-191.067-46.182-222.761c-10.866-33.505-26.939-64.746-48.219-93.722
	s-44.145-47.088-68.594-54.332c-51.615-14.489-109.116-3.169-172.503,33.957c-48.899,28.977-110.701,76.971-185.407,143.979
	S164.221,572.707,128,598.062v9.508c14.488,7.244,26.034,19.017,34.637,35.316c8.603,16.299,18.337,25.355,29.203,27.166
	c19.016,2.716,43.691-1.131,74.027-11.545c30.335-10.414,56.596-15.168,78.781-14.262c22.185,0.906,40.976,14.489,56.369,40.749
	c9.96,16.3,18.337,33.73,25.128,52.294s13.583,40.296,20.375,65.198s12.452,43.239,16.979,55.011
	c15.394,41.655,39.391,126.322,71.99,254.001c32.599,132.206,58.407,221.401,77.423,267.584
	c38.032,89.647,84.667,146.243,139.904,169.786c38.938,10.866,77.423,11.546,115.455,2.038
	c38.033-9.509,72.442-23.771,103.231-42.786c118.624-69.726,231.815-177.031,339.573-321.916
	c94.175-125.869,172.276-258.303,234.306-397.302C1607.409,649.904,1644.763,547.353,1657.439,481.249z"/>
</svg>
